<svg width="40" height="40" viewBox="0 0 40 40" fill="none" xmlns="http://www.w3.org/2000/svg">
<path d="M19.75 29.459C20.25 29.459 20.6667 29.2923 21 28.959C21.3333 28.6257 21.5 28.209 21.5 27.709C21.5 27.2363 21.3333 26.8263 21 26.479C20.6667 26.1323 20.25 25.959 19.75 25.959C19.25 25.959 18.8333 26.1323 18.5 26.479C18.1667 26.8263 18 27.2363 18 27.709C18 28.209 18.1667 28.6257 18.5 28.959C18.8333 29.2923 19.25 29.459 19.75 29.459ZM18.292 23.292H20.959C20.959 22.4867 21.049 21.799 21.229 21.229C21.4097 20.6597 21.9863 19.9583 22.959 19.125C23.7643 18.403 24.3543 17.7017 24.729 17.021C25.1043 16.3403 25.292 15.5697 25.292 14.709C25.292 13.209 24.785 12.0283 23.771 11.167C22.757 10.3057 21.4583 9.875 19.875 9.875C18.4583 9.875 17.2363 10.2363 16.209 10.959C15.181 11.681 14.4447 12.6393 14 13.834L16.375 14.75C16.625 14.056 17.035 13.4727 17.605 13C18.1743 12.528 18.9033 12.292 19.792 12.292C20.7367 12.292 21.4727 12.542 22 13.042C22.528 13.542 22.792 14.153 22.792 14.875C22.792 15.4863 22.6183 16.049 22.271 16.563C21.9237 17.077 21.4307 17.5977 20.792 18.125C19.8473 18.9863 19.1947 19.7433 18.834 20.396C18.4727 21.0487 18.292 22.014 18.292 23.292ZM19.667 36.334C17.389 36.334 15.2363 35.8963 13.209 35.021C11.181 34.1463 9.41 32.952 7.896 31.438C6.382 29.924 5.18767 28.153 4.313 26.125C3.43767 24.0977 3 21.945 3 19.667C3 17.3617 3.43767 15.195 4.313 13.167C5.18767 11.139 6.382 9.375 7.896 7.875C9.41 6.375 11.181 5.18767 13.209 4.313C15.2363 3.43767 17.389 3 19.667 3C21.9723 3 24.139 3.43767 26.167 4.313C28.195 5.18767 29.959 6.375 31.459 7.875C32.959 9.375 34.1463 11.139 35.021 13.167C35.8963 15.195 36.334 17.3617 36.334 19.667C36.334 21.945 35.8963 24.0977 35.021 26.125C34.1463 28.153 32.959 29.924 31.459 31.438C29.959 32.952 28.195 34.1463 26.167 35.021C24.139 35.8963 21.9723 36.334 19.667 36.334ZM19.667 33.542C23.5283 33.542 26.806 32.1947 29.5 29.5C32.1947 26.806 33.542 23.5283 33.542 19.667C33.542 15.8057 32.1947 12.528 29.5 9.834C26.806 7.13933 23.5283 5.792 19.667 5.792C15.8057 5.792 12.528 7.13933 9.834 9.834C7.13933 12.528 5.792 15.8057 5.792 19.667C5.792 23.5283 7.13933 26.806 9.834 29.5C12.528 32.1947 15.8057 33.542 19.667 33.542Z" fill="#018762"/>
</svg>
