<svg width="40" height="40" viewBox="0 0 40 40" fill="none" xmlns="http://www.w3.org/2000/svg">
<path d="M31.3333 7.8501C29.8053 6.30664 27.9853 5.08288 25.9794 4.25018C23.9735 3.41749 21.8219 2.99253 19.65 3.0001C10.55 3.0001 3.13333 10.4168 3.13333 19.5168C3.13333 22.4334 3.9 25.2668 5.33333 27.7668L3 36.3334L11.75 34.0334C14.1667 35.3501 16.8833 36.0501 19.65 36.0501C28.75 36.0501 36.1667 28.6334 36.1667 19.5334C36.1667 15.1168 34.45 10.9668 31.3333 7.8501V7.8501ZM19.65 33.2501C17.1833 33.2501 14.7667 32.5834 12.65 31.3334L12.15 31.0334L6.95 32.4001L8.33333 27.3334L8 26.8168C6.62958 24.6284 5.9019 22.0988 5.9 19.5168C5.9 11.9501 12.0667 5.78343 19.6333 5.78343C23.3 5.78343 26.75 7.21677 29.3333 9.81677C30.6125 11.09 31.6262 12.6045 32.3157 14.2725C33.0051 15.9404 33.3567 17.7286 33.35 19.5334C33.3833 27.1001 27.2167 33.2501 19.65 33.2501V33.2501ZM27.1833 22.9834C26.7667 22.7834 24.7333 21.7834 24.3667 21.6334C23.9833 21.5001 23.7167 21.4334 23.4333 21.8334C23.15 22.2501 22.3667 23.1834 22.1333 23.4501C21.9 23.7334 21.65 23.7668 21.2333 23.5501C20.8167 23.3501 19.4833 22.9001 17.9167 21.5001C16.6833 20.4001 15.8667 19.0501 15.6167 18.6334C15.3833 18.2168 15.5833 18.0001 15.8 17.7834C15.9833 17.6001 16.2167 17.3001 16.4167 17.0668C16.6167 16.8334 16.7 16.6501 16.8333 16.3834C16.9667 16.1001 16.9 15.8668 16.8 15.6668C16.7 15.4668 15.8667 13.4334 15.5333 12.6001C15.2 11.8001 14.85 11.9001 14.6 11.8834H13.8C13.5167 11.8834 13.0833 11.9834 12.7 12.4001C12.3333 12.8168 11.2667 13.8168 11.2667 15.8501C11.2667 17.8834 12.75 19.8501 12.95 20.1168C13.15 20.4001 15.8667 24.5668 20 26.3501C20.9833 26.7834 21.75 27.0334 22.35 27.2168C23.3333 27.5334 24.2333 27.4834 24.95 27.3834C25.75 27.2668 27.4 26.3834 27.7333 25.4168C28.0833 24.4501 28.0833 23.6334 27.9667 23.4501C27.85 23.2668 27.6 23.1834 27.1833 22.9834V22.9834Z" fill="#007756"/>
</svg>
