<svg width="203" height="26" viewBox="0 0 203 26" fill="none" xmlns="http://www.w3.org/2000/svg">
<path d="M114.718 7.69744C113.421 7.69744 112.365 8.75223 112.365 10.051V20.0342C112.365 20.5768 112.806 21.0164 113.347 21.0164H114.085C115.398 21.0164 116.429 19.9435 116.429 18.5741V8.68164C116.429 8.13912 115.987 7.69945 115.446 7.69945H114.718V7.69744ZM95.5687 7.6934C94.2961 7.6934 93.0658 8.17945 92.1623 9.07492C91.9848 9.25239 91.8033 9.45004 91.6238 9.67189C91.6238 9.57508 91.6339 8.68769 91.6319 8.48399C91.6279 8.15122 91.3193 7.72164 90.69 7.72164C90.6719 7.72164 90.3936 7.73172 90.3008 7.73172C89.4477 7.73172 87.4571 8.40937 87.4571 10.7509V20.004C87.4571 20.5465 87.8968 20.9862 88.4393 20.9862H89.1774C90.5267 20.9862 91.6198 19.8931 91.6198 18.5438V13.3727C91.6985 12.2635 92.4568 11.7109 94.5401 11.7109C94.5401 11.7109 96.9744 11.9166 96.9744 9.99861C96.9643 8.81878 97.1479 7.6934 95.9721 7.6934H95.5647H95.5687ZM104.1 11.009C105.758 11.009 106.663 11.8299 106.663 12.6507H101.46C101.46 12.205 102.315 11.009 104.1 11.009ZM100.568 8.31861C98.7774 9.325 97.4242 11.2833 97.4242 14.3247C97.4242 14.3247 97.1499 18.6124 100.607 20.5384C102.759 21.7384 105.905 21.3411 107.149 20.7321C109.327 19.6672 109.561 18.5942 109.533 18.1102C109.467 16.9304 107.924 16.4201 107.924 16.4201C106.649 15.7505 106.736 17.9005 104.279 17.9005C102.047 17.9005 101.462 16.408 101.339 15.561H109.182C109.977 15.561 110.537 14.9035 110.535 14.1996C110.535 11.9247 109.704 9.60534 107.5 8.28029C106.601 7.73979 105.391 7.41508 104.106 7.41508C102.926 7.41508 101.686 7.68937 100.566 8.31861M60.321 14.2662C60.321 11.721 61.9788 10.9989 63.3119 10.9989C64.9637 10.9989 66.3028 11.9811 66.3028 14.2662C66.3028 14.2662 66.6074 17.9126 63.3119 17.9126C60.0164 17.9126 60.321 14.2662 60.321 14.2662ZM62.3539 7.3929C59.5506 7.41105 58.042 8.75021 57.1142 10.4605C56.241 12.0699 56.2813 14.3388 56.2813 14.3388C56.2813 18.8988 59.123 21.3169 62.3559 21.3169C65.0786 21.3169 66.1858 19.9455 66.5005 19.5179C66.5005 19.5179 66.2544 21.0104 67.4262 21.0104H68.0736C69.32 21.0104 70.2961 20.0342 70.2961 18.7899V14.3489V8.61508C70.2961 8.08265 69.8625 7.68534 69.33 7.68534C69.33 7.68534 67.168 7.65508 66.6255 9.70214C65.9902 8.605 64.9415 7.3929 62.4104 7.3929C62.3922 7.3929 62.3761 7.3929 62.3579 7.3929M72.4077 14.3186C72.4077 19.3687 75.9371 21.3189 79.2628 21.3189C83.847 21.3189 85.1882 18.0961 85.3717 17.6847C86.3398 15.5206 83.2359 15.208 83.2359 15.208C82.6269 15.0789 82.0218 15.4238 81.8322 16.0127C81.5539 16.8739 80.8904 17.6947 79.3395 17.6947C76.7156 17.6947 76.3828 15.4904 76.3828 14.3186C76.3828 14.3186 76.28 10.9788 79.3395 10.9788C81.32 10.9788 81.7657 12.4591 81.8322 12.6608C82.0218 13.2497 82.6269 13.5966 83.2359 13.4655C83.24 13.4655 86.3438 13.163 85.3717 10.9889C84.3855 8.78248 82.3122 7.35861 79.2628 7.35861C72.0326 7.35861 72.4077 14.3186 72.4077 14.3186ZM167.587 10.3758V14.371C167.587 15.4016 167.353 16.2043 166.895 16.7569C165.911 17.9408 164.185 17.6605 163.515 16.9909C162.904 16.3798 162.958 15.204 162.958 14.3267V8.29845C162.958 7.42517 162 7.33038 161.99 7.33038C159.858 7.33038 158.796 9.1455 158.796 10.3758V15.3754C158.796 16.6763 159.405 20.9842 164.031 20.9842C166.808 20.9842 167.413 19.641 167.601 19.3344V19.7075C167.601 20.242 168.035 20.6756 168.569 20.6756H169.309C170.656 20.6756 171.754 19.5805 171.754 18.2312V8.29441C171.754 7.42113 170.796 7.32634 170.786 7.32634C168.654 7.32634 167.591 9.14147 167.591 10.3717M196.278 10.6581C197.936 10.6581 198.841 11.4789 198.841 12.2998H193.638C193.638 11.8541 194.493 10.6581 196.278 10.6581ZM192.747 7.96769C190.956 8.97408 189.602 10.9344 189.602 13.9737C189.602 13.9737 189.328 18.2615 192.785 20.1875C194.937 21.3875 198.083 20.9902 199.327 20.3811C201.508 19.3163 201.739 18.2433 201.711 17.7593C201.645 16.5795 200.102 16.0692 200.102 16.0692C198.827 15.3996 198.914 17.5495 196.457 17.5495C194.225 17.5495 193.64 16.0591 193.517 15.21H201.36C202.155 15.21 202.716 14.5526 202.714 13.8487C202.714 11.5737 201.883 9.25441 199.678 7.92937C198.779 7.38886 197.569 7.06416 196.284 7.06416C195.104 7.06416 193.864 7.33845 192.744 7.96769M146.185 13.9274C146.185 11.3821 147.842 10.6601 149.175 10.6601C150.827 10.6601 152.166 11.6423 152.166 13.9274C152.166 13.9274 152.471 17.5737 149.175 17.5737C145.88 17.5737 146.185 13.9274 146.185 13.9274ZM148.217 7.05407C145.414 7.07223 143.906 8.41139 142.978 10.1216C142.104 11.7311 142.145 14 142.145 14C142.145 18.56 144.989 20.9781 148.219 20.9781C150.942 20.9781 152.049 19.6067 152.364 19.1791C152.364 19.1791 152.118 20.6716 153.29 20.6716H153.937C155.183 20.6716 156.16 19.6954 156.16 18.451V14.01V8.27626C156.16 7.74382 155.726 7.34651 155.194 7.34651C155.194 7.34651 153.032 7.31626 152.489 9.36332C151.854 8.26618 150.805 7.05407 148.274 7.05407C148.258 7.05407 148.24 7.05407 148.223 7.05407M43.3838 3.5529C42.8353 3.5529 42.3311 3.99861 42.3311 4.5492L42.3411 18.441C42.3411 19.7882 43.4383 20.8833 44.7855 20.8833H51.7294C52.0662 20.8833 52.6672 20.8208 52.9173 20.7018C54.7647 19.8144 55.1781 17.0171 53.5969 17.0171H47.3005C46.8628 17.0171 46.5058 16.6601 46.5058 16.2225L46.5522 6.03559C46.5522 4.66618 45.4369 3.55088 44.0675 3.55088H43.3838V3.5529ZM131.371 3.34113C126.984 3.34113 126.109 7.15088 126.109 8.62718C126.109 10.7569 127.17 12.3885 128.848 13.1932C129.675 13.5905 130.607 13.7922 131.613 13.7922H134.233C134.566 13.7922 135.788 14.0363 135.788 15.3714C135.788 15.6578 135.554 16.9263 134.233 16.9263H129.395C126.708 16.9263 126.811 19.7216 126.811 19.7216C126.811 20.2379 127.233 20.6595 127.749 20.6595H134.816C139.275 20.6595 140.102 16.7065 140.102 15.0084C140.102 10.4887 135.961 9.91592 134.572 9.91592H131.831C131.44 9.91592 130.445 9.66584 130.445 8.50618C130.445 8.22584 130.631 7.07223 131.831 7.07223H136.449C139.136 7.07223 139.035 4.27895 139.035 4.27693C139.035 3.76063 138.613 3.33912 138.097 3.33912H131.371V3.34113ZM114.117 3.12534C113.04 3.12534 112.165 3.99861 112.165 5.0776C112.165 6.1566 113.038 7.02987 114.117 7.02987H114.607C115.684 7.02987 116.56 6.1566 116.56 5.0776C116.56 3.99861 115.686 3.12534 114.607 3.12534H114.117ZM177.816 14.004C177.816 11.4104 179.43 10.6339 180.751 10.6339C182.189 10.6339 183.685 11.5314 183.685 13.887C183.685 14.004 184.068 17.5516 180.751 17.5516C177.433 17.5516 177.816 14.006 177.816 14.006M186.728 2.34483H186.71C185.891 2.34483 185.085 2.67962 184.496 3.2645C183.915 3.8413 183.596 4.5976 183.596 5.39223V8.46382C182.289 6.96937 180.708 7.01172 179.768 7.01172C173.643 7.01172 173.762 13.9979 173.762 13.9979C173.762 20.3166 178.506 20.964 179.768 20.964C182.61 20.964 183.368 19.6289 183.647 19.2779V19.6874C183.647 20.2218 184.082 20.6574 184.615 20.6574H185.355C186.638 20.6574 187.68 19.6147 187.68 18.3321V3.31693C187.68 2.78651 187.255 2.35088 186.73 2.34887L186.728 2.34483ZM167.74 2.125C167.23 2.125 166.746 2.35492 166.443 2.74618L164.733 5.72903C164.533 5.98517 164.461 6.29374 164.537 6.57609C164.658 7.02786 165.092 7.34449 165.588 7.34449C167.224 7.34449 168.694 6.10013 169.428 4.75088L170.047 3.6134C170.203 3.32702 170.223 3.01038 170.1 2.74214C169.928 2.36702 169.537 2.12702 169.103 2.12702H167.744L167.74 2.125Z" fill="#018762"/>
<path d="M18.6955 0.990297C16.836 0.990297 11.2837 2.27097 11.2837 8.48475C11.2837 11.5442 12.8185 13.7567 15.2709 14.9123C16.485 15.4851 17.8383 15.7715 19.3267 15.7715H22.8541C24.046 15.7715 24.6753 16.6105 24.6753 17.5241C24.6753 18.718 23.2756 19.2424 22.8541 19.2424H9.11361C8.01042 19.2424 7.49815 18.2562 7.49815 17.5927V5.17316C7.49815 2.86189 5.62453 0.988281 3.31327 0.988281H1.69781C0.800332 0.988281 0.0722656 1.71635 0.0722656 2.61383V17.5241C0.0722656 24.0928 6.40907 25.0528 8.15159 25.0528H23.9533C30.3526 25.0528 31.7906 19.6881 31.7906 17.1126C31.7906 10.6851 25.7018 9.8582 23.6084 9.8582H19.9802C18.9818 9.8582 18.399 9.13618 18.399 8.31131C18.399 7.06694 19.4538 6.7987 19.9802 6.7987H26.3291C28.6403 6.7987 30.5139 4.92509 30.5139 2.61383C30.5139 2.61383 30.4998 0.988281 28.8884 0.988281H18.6955V0.990297Z" fill="black"/>
<path d="M18.6955 0.990297C16.836 0.990297 11.2837 2.27097 11.2837 8.48475C11.2837 11.5442 12.8185 13.7567 15.2709 14.9123C16.485 15.4851 17.8383 15.7715 19.3267 15.7715H22.8541C24.046 15.7715 24.6753 16.6105 24.6753 17.5241C24.6753 18.718 23.2756 19.2424 22.8541 19.2424H9.11361C8.01042 19.2424 7.49815 18.2562 7.49815 17.5927V5.17316C7.49815 2.86189 5.62453 0.988281 3.31327 0.988281H1.69781C0.800332 0.988281 0.0722656 1.71635 0.0722656 2.61383V17.5241C0.0722656 24.0928 6.40907 25.0528 8.15159 25.0528H23.9533C30.3526 25.0528 31.7906 19.6881 31.7906 17.1126C31.7906 10.6851 25.7018 9.8582 23.6084 9.8582H19.9802C18.9818 9.8582 18.399 9.13618 18.399 8.31131C18.399 7.06694 19.4538 6.7987 19.9802 6.7987H26.3291C28.6403 6.7987 30.5139 4.92509 30.5139 2.61383C30.5139 2.61383 30.4998 0.988281 28.8884 0.988281H18.6955V0.990297Z" fill="url(#paint0_linear_26194_104)"/>
<defs>
<linearGradient id="paint0_linear_26194_104" x1="-1.81696" y1="14.4549" x2="30.1045" y2="14.4549" gradientUnits="userSpaceOnUse">
<stop stop-color="#008392"/>
<stop offset="1" stop-color="#00BC86"/>
</linearGradient>
</defs>
</svg>
