<svg width="170" height="48" viewBox="0 0 170 48" fill="none" xmlns="http://www.w3.org/2000/svg">
<path d="M46.2675 18.0593L39.1376 18.059C37.1772 18.0589 36.029 16.6422 36.0291 15.0178C36.0292 12.5743 38.1017 12.0446 39.1379 12.0447L51.617 12.0453C56.1586 12.0455 59.8416 8.3629 59.8418 3.82125C59.8418 3.82125 59.8163 0.626231 56.6469 0.626073L36.611 0.625077C32.9585 0.624895 22.043 3.14256 22.0424 15.3532C22.0421 21.3675 25.0596 25.7132 29.8788 27.989C32.2663 29.1163 34.9222 29.6789 37.8511 29.6791L44.7826 29.6794C47.1258 29.6795 48.3626 31.3296 48.3625 33.1243C48.3624 35.4722 45.6108 36.5036 44.7823 36.5035L17.7728 36.5022C15.6047 36.5021 14.5965 34.5626 14.5966 33.258L14.5978 8.84608C14.598 4.30444 10.9154 0.621464 6.37378 0.621238L3.19743 0.62108C1.43305 0.620993 0.00233937 2.05156 0.00225161 3.81594L0.000793986 33.1219C0.000151942 46.0304 12.4534 47.9191 15.8795 47.9192L46.9382 47.9208C59.5152 47.9214 62.3443 37.3749 62.3446 32.3128C62.3452 19.6798 50.3774 18.0548 46.2652 18.0546L46.2675 18.0593Z" fill="#018762"/>
<path d="M132.395 32.2813C129.939 32.2812 128.714 34.3723 128.714 35.7889L128.714 40.3889C128.714 41.5768 128.445 42.501 127.916 43.1381C126.781 44.501 124.793 44.1788 124.023 43.4063C123.32 42.7038 123.383 41.3478 123.383 40.3373L123.384 33.3941C123.384 32.3882 122.28 32.2785 122.268 32.2785C119.813 32.2784 118.588 34.3694 118.588 35.7861L118.587 41.546C118.587 43.0443 119.289 48.0061 124.618 48.0063C127.817 48.0065 128.513 46.4592 128.728 46.1068L128.728 46.5362C128.727 47.1523 129.227 47.6518 129.841 47.6518L130.693 47.6519C132.245 47.652 133.507 46.3894 133.507 44.8374L133.508 33.3923C133.508 32.3864 132.404 32.2767 132.392 32.2767L132.395 32.2813Z" fill="#018762"/>
<path d="M128.88 26.2855C128.292 26.2855 127.737 26.5515 127.387 27.0019L125.417 30.4372C125.186 30.7336 125.104 31.0884 125.19 31.4128C125.33 31.9332 125.827 32.2973 126.401 32.2974C128.285 32.2975 129.979 30.8622 130.824 29.3103L131.536 28.001C131.716 27.672 131.737 27.3056 131.594 26.9975C131.398 26.5657 130.946 26.288 130.446 26.2879L128.88 26.2879L128.88 26.2855Z" fill="#018762"/>
<path d="M90.6796 35.2596L87.5219 35.2594C87.0714 35.2594 85.9279 34.9723 85.9279 33.6373C85.928 33.3152 86.1404 31.9873 87.522 31.9874L92.8432 31.9876C95.9379 31.9878 95.8213 28.7694 95.8213 28.7694C95.8214 28.1743 95.3359 27.6888 94.7408 27.6888L86.9925 27.6884C81.9397 27.6882 80.9313 32.0781 80.9312 33.7771C80.9311 36.2299 82.1516 38.1087 84.0863 39.0377C85.0385 39.4952 86.112 39.7286 87.2719 39.7287L90.2896 39.7288C90.6747 39.7289 92.0796 40.009 92.0795 41.547C92.0795 41.8784 91.8087 43.337 90.2894 43.3369L84.7162 43.3367C81.6215 43.3365 81.7404 46.5549 81.7404 46.5549C81.7404 47.15 82.2258 47.6355 82.8209 47.6355L90.959 47.6359C96.0934 47.6362 97.0482 43.0829 97.0483 41.1271C97.0486 35.9227 92.2806 35.262 90.6796 35.2619L90.6796 35.2596Z" fill="#018762"/>
<path d="M115.547 33.3751C115.547 32.7613 115.047 32.3038 114.433 32.3038C114.433 32.3038 111.943 32.2686 111.318 34.6258C110.58 33.3538 109.362 31.9464 106.403 31.965C103.173 31.9858 101.436 33.5284 100.367 35.4981C99.3613 37.3511 99.4079 39.965 99.4079 39.965C99.4076 45.2185 102.682 48.0029 106.404 48.0031C109.541 48.0032 110.815 46.4233 111.177 45.9309C111.177 45.9309 110.895 47.6486 112.244 47.6486L112.988 47.6487C114.423 47.6487 115.548 46.5239 115.548 45.0932L115.549 33.3751L115.547 33.3751ZM107.506 44.0823C103.716 44.0821 104.062 39.8836 104.062 39.8836C104.062 36.9523 105.971 36.1192 107.506 36.1192C109.409 36.1193 110.951 37.2513 110.951 39.8839C110.951 39.8839 111.303 44.0825 107.506 44.0823Z" fill="#018762"/>
<path d="M165.673 32.9785C163.684 31.7811 160.38 31.5079 157.686 33.0224C155.623 34.1822 154.064 36.439 154.064 39.9397C154.064 39.9397 153.746 44.8781 157.73 47.0978C160.209 48.4795 163.833 48.0223 165.266 47.3222C167.775 46.0947 168.043 44.8601 168.013 44.3024C167.936 42.9417 166.16 42.3558 166.16 42.3558C164.692 41.5856 164.792 44.0595 161.961 44.0593C159.392 44.0592 158.718 42.3415 158.575 41.3636L167.609 41.364C168.524 41.3641 169.169 40.608 169.169 39.7958C169.169 37.1749 168.21 34.5049 165.673 32.9761L165.673 32.9785ZM158.711 38.0099C158.711 37.4964 159.696 36.1195 161.752 36.1196C163.661 36.1197 164.704 37.065 164.704 38.0102L158.711 38.0099Z" fill="#018762"/>
<path d="M150.751 26.541L150.73 26.541C149.787 26.541 148.858 26.926 148.179 27.6004C147.511 28.2655 147.142 29.1337 147.142 30.0509L147.142 33.589C145.637 31.8666 143.814 31.9155 142.734 31.9154C135.678 31.9151 135.816 39.9621 135.816 39.9621C135.815 47.2391 141.279 47.9861 142.733 47.9862C146.005 47.9864 146.88 46.4484 147.2 46.0447L147.2 46.5161C147.2 47.1323 147.702 47.6317 148.315 47.6318L149.167 47.6318C150.645 47.6319 151.844 46.43 151.844 44.955L151.845 27.6566C151.845 27.0452 151.355 26.5434 150.751 26.541ZM143.865 44.0561C140.135 44.0559 140.486 39.9717 140.486 39.9717C140.486 36.9844 142.344 36.0906 143.865 36.0907C145.52 36.0908 147.245 37.1248 147.244 39.8367C147.244 39.9721 147.685 44.0563 143.865 44.0561Z" fill="#018762"/>
<path d="M124.32 20.9572C129.599 20.9574 131.145 17.2467 131.355 16.7729C132.468 14.2805 128.895 13.9209 128.895 13.9209C128.192 13.7715 127.497 14.1705 127.277 14.8473C126.958 15.8392 126.192 16.7843 124.407 16.7843C121.387 16.7841 121.002 14.2449 121.002 12.8959C121.002 12.8959 120.883 9.04975 124.407 9.04992C126.687 9.05004 127.203 10.7561 127.278 10.9872C127.497 11.6663 128.192 12.0631 128.895 11.9138C128.9 11.9138 132.475 11.5662 131.355 9.06194C130.221 6.52034 127.831 4.87953 124.321 4.87936C115.992 4.87894 116.423 12.8957 116.423 12.8957C116.423 18.7139 120.488 20.957 124.32 20.9572Z" fill="#018762"/>
<path d="M165.996 5.26884L165.156 5.2688C163.662 5.26873 162.446 6.48459 162.446 7.97825L162.446 19.4771C162.446 20.1002 162.955 20.609 163.578 20.609L164.43 20.6091C165.942 20.6091 167.127 19.3723 167.128 17.7946L167.128 6.40081C167.128 5.77768 166.619 5.26887 165.996 5.26884Z" fill="#018762"/>
<path d="M165.021 0.00832981L164.456 0.00830171C163.215 0.00823998 162.209 1.01442 162.209 2.25568L162.209 2.25801C162.209 3.49926 163.215 4.50554 164.456 4.5056L165.021 4.50563C166.262 4.50569 167.268 3.49951 167.268 2.25826L167.268 2.25593C167.268 1.01468 166.262 0.00839154 165.021 0.00832981Z" fill="#018762"/>
<path d="M138.557 17.7605L138.557 11.8046C138.646 10.5256 139.521 9.89085 141.92 9.89097C141.92 9.89097 144.725 10.1292 144.726 7.91902C144.714 6.56073 144.924 5.26546 143.573 5.2654L143.104 5.26537C141.638 5.2653 140.221 5.82535 139.18 6.85685C138.975 7.05988 138.767 7.28859 138.562 7.5453C138.562 7.43328 138.574 6.41339 138.571 6.17768C138.567 5.79259 138.212 5.30013 137.486 5.3001C137.465 5.3001 137.143 5.31175 137.038 5.31175C136.055 5.3117 133.764 6.09109 133.763 8.789L133.763 19.4476C133.763 20.0731 134.269 20.5796 134.895 20.5796L135.747 20.5796C137.301 20.5797 138.561 19.3195 138.561 17.7652L138.557 17.7605Z" fill="#018762"/>
<path d="M113.994 6.32582C113.994 5.71202 113.494 5.25456 112.88 5.25453C112.88 5.25453 110.39 5.2194 109.765 7.57654C109.027 6.30457 107.809 4.8972 104.85 4.91572C101.62 4.93657 99.8833 6.47915 98.8143 8.44885C97.8083 10.3019 97.8549 12.9158 97.8549 12.9158C97.8546 18.1692 101.129 20.9537 104.851 20.9538C107.988 20.954 109.262 19.3741 109.624 18.8816C109.624 18.8816 109.342 20.5993 110.691 20.5994L111.435 20.5994C112.87 20.5995 113.995 19.4746 113.995 18.044L113.996 6.32582L113.994 6.32582ZM105.953 17.0331C102.163 17.0329 102.509 12.8343 102.509 12.8343C102.509 9.90302 104.418 9.06993 105.953 9.07001C107.856 9.0701 109.398 10.2021 109.398 12.8347C109.398 12.8347 109.75 17.0332 105.953 17.0331Z" fill="#018762"/>
<path d="M156.848 5.94053C154.859 4.74318 151.555 4.46995 148.861 5.98448C146.798 7.14429 145.239 9.40104 145.239 12.9018C145.239 12.9018 144.921 17.8402 148.905 20.0598C151.383 21.4416 155.008 20.9843 156.441 20.2843C158.95 19.0568 159.218 17.8222 159.188 17.2644C159.111 15.9038 157.335 15.3179 157.335 15.3179C155.867 14.5477 155.967 17.0215 153.136 17.0214C150.567 17.0213 149.892 15.3035 149.75 14.3257L158.784 14.3261C159.699 14.3261 160.343 13.57 160.343 12.7578C160.343 10.1369 159.384 7.46699 156.848 5.9382L156.848 5.94053ZM149.886 10.9719C149.886 10.4585 150.87 9.08158 152.927 9.08168C154.836 9.08178 155.879 10.027 155.879 10.9722L149.886 10.9719Z" fill="#018762"/>
<path d="M84.6007 20.4581L92.5987 20.4585C92.9861 20.4585 93.6793 20.3862 93.9663 20.2485C96.0949 19.2264 96.5711 16.0057 94.7507 16.0056L87.4995 16.0053C86.9954 16.0052 86.5847 15.5945 86.5847 15.0903L86.6389 3.35815C86.639 1.78048 85.3555 0.496807 83.7778 0.496728L82.989 0.496689C82.3565 0.496658 81.7777 1.01007 81.7776 1.64254L81.7885 17.6433C81.7884 19.1953 83.051 20.458 84.603 20.4581L84.6007 20.4581Z" fill="#018762"/>
</svg>
